<svg width="120" height="120" viewBox="0 0 31.749998 31.750001" xmlns="http://www.w3.org/2000/svg"><path d="M9.887 21.67c-2.285-1.255-4.4-2.533-4.7-2.84-.544-.56-.544-.56-.54-5.722.004-4.63.043-5.242.375-5.942.203-.43.67-.993 1.034-1.253.366-.26 2.57-1.517 4.9-2.795C14.327 1.268 15.333.798 15.9.813c.392.01 2.663.51 5.047 1.11 3.022.765 4.398 1.196 4.55 1.427.153.235.155.425.006.65-.116.176-2.163 1.373-4.55 2.66C18.567 7.95 16.42 9.05 16.18 9.11c-.238.058-2.234-.32-4.436-.84-2.2-.522-4.114-.907-4.25-.857-.136.05-.3.22-.36.375-.064.156-.034.427.065.6.097.176 1.677 1.126 3.51 2.112 1.833.987 3.578 2.025 3.877 2.308.544.514.544.514.544 5.64 0 4.872-.018 5.134-.382 5.32-.21.108-.455.194-.544.19-.09-.003-2.03-1.032-4.317-2.286zm7.075 2.074c-.186-.178-.248-1.52-.248-5.395 0-5.158 0-5.158.573-5.62.314-.253 2.05-1.26 3.858-2.236 1.808-.977 3.287-1.878 3.287-2.002 0-.124-.49-.49-1.09-.814-.597-.323-1.087-.667-1.087-.763 0-.096.245-.337.544-.536.298-.2.712-.42.92-.493.256-.09.804.114 1.73.64.965.55 1.396.918 1.503 1.285.083.282.15 2.735.15 5.45 0 4.245-.045 5-.322 5.4-.18.262-2.188 1.49-4.57 2.798-2.335 1.283-4.416 2.375-4.624 2.427-.207.052-.488-.013-.624-.143z" fill="#f4d0a4"/><path d="M16.962 23.744c-.186-.178-.248-1.52-.248-5.395 0-5.158 0-5.158.573-5.62.314-.253 2.05-1.26 3.858-2.236 1.808-.977 3.287-1.878 3.287-2.002 0-.124-.49-.49-1.09-.814-.597-.323-1.087-.667-1.087-.763 0-.096.245-.337.544-.536.298-.2.712-.42.92-.493.256-.09.804.114 1.73.64.965.55 1.396.918 1.503 1.285.083.282.15 2.735.15 5.45 0 4.245-.045 5-.322 5.4-.18.262-2.188 1.49-4.57 2.798-2.335 1.283-4.416 2.375-4.624 2.427-.207.052-.488-.013-.624-.143zM9.82 21.36c-3.207-1.748-4.497-2.552-4.7-2.927-.22-.406-.28-1.554-.278-5.313 0-2.637.09-5.097.196-5.466.107-.37.485-.938.84-1.263.355-.324 2.358-1.528 4.45-2.675 2.094-1.147 4.043-2.264 4.332-2.48.35-.265.795-.39 1.34-.38.447.007 2.72.497 5.048 1.088 2.944.748 4.3 1.177 4.45 1.407.153.232.156.426.01.646-.112.172-1.36.942-2.768 1.71-1.41.768-3.49 1.878-4.625 2.466-2.062 1.07-2.062 1.07-3.364.66-.715-.226-2.58-.713-4.143-1.082-2.642-.625-2.876-.65-3.315-.376-.26.163-.472.452-.472.642s.17.493.378.673c.208.18 1.967 1.203 3.908 2.275 2.22 1.225 3.62 2.117 3.775 2.403.175.323.246 1.78.248 5.062.002 2.82-.076 4.75-.202 4.976-.112.2-.313.366-.445.366-.13 0-2.23-1.085-4.66-2.41z" fill="#cda1d5"/><path d="M11.074 21.87l-4.25-2.398c-.705-.397-1.397-.936-1.538-1.196-.196-.362-.244-1.688-.202-5.59.053-5.004.064-5.133.51-5.733.262-.35 1.28-1.075 2.376-1.69 1.054-.59 3.2-1.804 4.77-2.695 2.852-1.62 2.852-1.62 7.496-.49 2.554.62 4.787 1.23 4.964 1.355.284.2.287.256.023.5-.163.15-2.167 1.268-4.452 2.483s-4.373 2.262-4.64 2.326c-.266.065-1.023-.03-1.682-.208-.658-.178-2.44-.624-3.958-.99-2.144-.517-2.862-.622-3.21-.47-.247.108-.504.404-.57.66-.067.253-.026.633.09.843.12.21 1.796 1.234 3.73 2.275 1.93 1.042 3.67 2.03 3.862 2.198.32.28.345.73.297 5.37-.046 4.335-.096 5.067-.35 5.095-.164.017-1.633-.723-3.266-1.644zm6.076 1.485c-.172-.164-.237-1.51-.235-4.88.002-3.353.072-4.785.25-5.124.167-.31 1.475-1.138 3.904-2.463 2.237-1.22 3.68-2.12 3.72-2.324.045-.227-.25-.52-.938-.93-.552-.327-1.003-.667-1.003-.753 0-.086.232-.303.517-.482.502-.316.552-.31 1.59.212.59.296 1.248.75 1.462 1.01.36.44.386.793.386 5.366 0 3.15-.077 5.056-.217 5.35-.15.31-1.6 1.223-4.54 2.852-2.377 1.317-4.4 2.395-4.493 2.395-.093 0-.277-.103-.407-.228z" fill="#e6870d"/><text style="line-height:120%;-inkscape-font-specification:'Sawasdee, Bold';font-variant-ligatures:normal;font-variant-caps:normal;font-variant-numeric:normal;font-feature-settings:normal;text-align:start" x="-107.056" y="287.631" font-weight="bold" font-size="14.111" font-family="Sawasdee" letter-spacing="0" word-spacing="0" fill="#e6870d" stroke-width=".265" transform="translate(107.47 -258.2)"><tspan x="-107.056" y="287.631" style="-inkscape-font-specification:'Sawasdee, Bold';font-variant-ligatures:normal;font-variant-caps:normal;font-variant-numeric:normal;font-feature-settings:normal;text-align:start" font-size="8.467">Syradev</tspan></text></svg>